<mxfile host="app.diagrams.net" agent="Mozilla/5.0 (Windows NT 10.0; Win64; x64) AppleWebKit/537.36 (KHTML, like Gecko) Chrome/133.0.0.0 Safari/537.36 OPR/118.0.0.0" version="26.1.3">
  <diagram name="Page-1" id="2YBvvXClWsGukQMizWep">
    <mxGraphModel dx="1632" dy="962" grid="1" gridSize="10" guides="1" tooltips="1" connect="1" arrows="1" fold="1" page="1" pageScale="1" pageWidth="850" pageHeight="1100" math="0" shadow="0">
      <root>
        <mxCell id="0" />
        <mxCell id="1" parent="0" />
        <mxCell id="OV7kRfB5JpvK0r7Kry-r-8" style="edgeStyle=orthogonalEdgeStyle;rounded=0;orthogonalLoop=1;jettySize=auto;html=1;exitX=0.5;exitY=1;exitDx=0;exitDy=0;entryX=0.5;entryY=0;entryDx=0;entryDy=0;" edge="1" parent="1" source="OV7kRfB5JpvK0r7Kry-r-5" target="OV7kRfB5JpvK0r7Kry-r-6">
          <mxGeometry relative="1" as="geometry" />
        </mxCell>
        <mxCell id="OV7kRfB5JpvK0r7Kry-r-5" value="&lt;div&gt;&lt;br&gt;&lt;/div&gt;&lt;div&gt;&lt;div style=&quot;color: rgb(0, 0, 0); -webkit-user-drag: none; -webkit-tap-highlight-color: transparent; margin: 0px; padding: 0px; user-select: text; clear: both; cursor: text; overflow: visible; position: relative; direction: ltr; font-family: &amp;quot;Segoe UI&amp;quot;, &amp;quot;Segoe UI Web&amp;quot;, Arial, Verdana, sans-serif; text-align: start; background-color: rgb(255, 255, 255);&quot; class=&quot;OutlineElement Ltr SCXW179125282 BCX0&quot;&gt;&lt;p style=&quot;-webkit-user-drag: none; -webkit-tap-highlight-color: transparent; margin: 0px 0px 10.6667px; padding: 0px; user-select: text; overflow-wrap: break-word; white-space-collapse: preserve; vertical-align: baseline; font-kerning: none; background-color: transparent; color: windowtext;&quot; class=&quot;Paragraph SCXW179125282 BCX0&quot; lang=&quot;EN-US&quot;&gt;&lt;span style=&quot;-webkit-user-drag: none; -webkit-tap-highlight-color: transparent; margin: 0px; padding: 0px; user-select: text; font-size: 12pt; line-height: 20.925px; font-family: Aptos, Aptos_EmbeddedFont, Aptos_MSFontService, sans-serif; font-variant-ligatures: none !important;&quot; data-contrast=&quot;auto&quot; lang=&quot;EN-US&quot; class=&quot;TextRun SCXW179125282 BCX0&quot;&gt;&lt;span style=&quot;-webkit-user-drag: none; -webkit-tap-highlight-color: transparent; margin: 0px; padding: 0px; user-select: text;&quot; class=&quot;NormalTextRun SCXW179125282 BCX0&quot;&gt;Declare Integer &lt;/span&gt;&lt;span style=&quot;-webkit-user-drag: none; -webkit-tap-highlight-color: transparent; margin: 0px; padding: 0px; user-select: text; background-position: 0px 100%; background-repeat: repeat-x; background-image: var(--urlSpellingErrorV2,url(&amp;quot;data:image/svg+xml;base64,PHN2ZyB4bWxucz0iaHR0cDovL3d3dy53My5vcmcvMjAwMC9zdmciIHdpZHRoPSI1IiBoZWlnaHQ9IjQiPjxnIGZpbGw9Im5vbmUiIGZpbGwtcnVsZT0iZXZlbm9kZCI+PHBhdGggc3Ryb2tlPSIjRUIwMDAwIiBkPSJNMCAzYzEuMjUgMCAxLjI1LTIgMi41LTJTMy43NSAzIDUgMyIvPjxwYXRoIGQ9Ik0wIDBoNXY0SDB6Ii8+PC9nPjwvc3ZnPg==&amp;quot;)); border-bottom: 1px solid transparent;&quot; class=&quot;NormalTextRun SpellingErrorV2Themed SCXW179125282 BCX0&quot;&gt;userAge&lt;/span&gt;&lt;/span&gt;&lt;span style=&quot;-webkit-user-drag: none; -webkit-tap-highlight-color: transparent; margin: 0px; padding: 0px; user-select: text; font-size: 12pt; line-height: 20.925px; font-family: Aptos, Aptos_EmbeddedFont, Aptos_MSFontService, sans-serif;&quot; class=&quot;EOP SCXW179125282 BCX0&quot; data-ccp-props=&quot;{}&quot;&gt;&amp;nbsp;&lt;/span&gt;&lt;/p&gt;&lt;/div&gt;&lt;div style=&quot;color: rgb(0, 0, 0); -webkit-user-drag: none; -webkit-tap-highlight-color: transparent; margin: 0px; padding: 0px; user-select: text; clear: both; cursor: text; overflow: visible; position: relative; direction: ltr; font-family: &amp;quot;Segoe UI&amp;quot;, &amp;quot;Segoe UI Web&amp;quot;, Arial, Verdana, sans-serif; text-align: start; background-color: rgb(255, 255, 255);&quot; class=&quot;OutlineElement Ltr SCXW179125282 BCX0&quot;&gt;&lt;p style=&quot;-webkit-user-drag: none; -webkit-tap-highlight-color: transparent; margin: 0px 0px 10.6667px; padding: 0px; user-select: text; overflow-wrap: break-word; white-space-collapse: preserve; vertical-align: baseline; font-kerning: none; background-color: transparent; color: windowtext;&quot; class=&quot;Paragraph SCXW179125282 BCX0&quot; lang=&quot;EN-US&quot;&gt;&lt;span style=&quot;-webkit-user-drag: none; -webkit-tap-highlight-color: transparent; margin: 0px; padding: 0px; user-select: text; font-size: 12pt; line-height: 20.925px; font-family: Aptos, Aptos_EmbeddedFont, Aptos_MSFontService, sans-serif; font-variant-ligatures: none !important;&quot; data-contrast=&quot;auto&quot; lang=&quot;EN-US&quot; class=&quot;TextRun SCXW179125282 BCX0&quot;&gt;Declare Integer quantity&lt;/span&gt;&lt;span style=&quot;-webkit-user-drag: none; -webkit-tap-highlight-color: transparent; margin: 0px; padding: 0px; user-select: text; font-size: 12pt; line-height: 20.925px; font-family: Aptos, Aptos_EmbeddedFont, Aptos_MSFontService, sans-serif;&quot; class=&quot;EOP SCXW179125282 BCX0&quot; data-ccp-props=&quot;{}&quot;&gt;&amp;nbsp;&lt;/span&gt;&lt;/p&gt;&lt;/div&gt;&lt;div style=&quot;color: rgb(0, 0, 0); -webkit-user-drag: none; -webkit-tap-highlight-color: transparent; margin: 0px; padding: 0px; user-select: text; clear: both; cursor: text; overflow: visible; position: relative; direction: ltr; font-family: &amp;quot;Segoe UI&amp;quot;, &amp;quot;Segoe UI Web&amp;quot;, Arial, Verdana, sans-serif; text-align: start; background-color: rgb(255, 255, 255);&quot; class=&quot;OutlineElement Ltr SCXW179125282 BCX0&quot;&gt;&lt;p style=&quot;-webkit-user-drag: none; -webkit-tap-highlight-color: transparent; margin: 0px 0px 10.6667px; padding: 0px; user-select: text; overflow-wrap: break-word; white-space-collapse: preserve; vertical-align: baseline; font-kerning: none; background-color: transparent; color: windowtext;&quot; class=&quot;Paragraph SCXW179125282 BCX0&quot; lang=&quot;EN-US&quot;&gt;&lt;span style=&quot;-webkit-user-drag: none; -webkit-tap-highlight-color: transparent; margin: 0px; padding: 0px; user-select: text; font-size: 12pt; line-height: 20.925px; font-family: Aptos, Aptos_EmbeddedFont, Aptos_MSFontService, sans-serif; font-variant-ligatures: none !important;&quot; data-contrast=&quot;auto&quot; lang=&quot;EN-US&quot; class=&quot;TextRun SCXW179125282 BCX0&quot;&gt;Declare Real answer&lt;/span&gt;&lt;span style=&quot;-webkit-user-drag: none; -webkit-tap-highlight-color: transparent; margin: 0px; padding: 0px; user-select: text; font-size: 12pt; line-height: 20.925px; font-family: Aptos, Aptos_EmbeddedFont, Aptos_MSFontService, sans-serif;&quot; class=&quot;EOP SCXW179125282 BCX0&quot; data-ccp-props=&quot;{&amp;quot;335559731&amp;quot;:0}&quot;&gt;&amp;nbsp;&lt;/span&gt;&lt;/p&gt;&lt;/div&gt;&lt;div style=&quot;color: rgb(0, 0, 0); -webkit-user-drag: none; -webkit-tap-highlight-color: transparent; margin: 0px; padding: 0px; user-select: text; clear: both; cursor: text; overflow: visible; position: relative; direction: ltr; font-family: &amp;quot;Segoe UI&amp;quot;, &amp;quot;Segoe UI Web&amp;quot;, Arial, Verdana, sans-serif; text-align: start; background-color: rgb(255, 255, 255);&quot; class=&quot;OutlineElement Ltr SCXW179125282 BCX0&quot;&gt;&lt;p style=&quot;-webkit-user-drag: none; -webkit-tap-highlight-color: transparent; margin: 0px 0px 10.6667px; padding: 0px; user-select: text; overflow-wrap: break-word; white-space-collapse: preserve; vertical-align: baseline; font-kerning: none; background-color: transparent; color: windowtext;&quot; class=&quot;Paragraph SCXW179125282 BCX0&quot; lang=&quot;EN-US&quot;&gt;&lt;span style=&quot;-webkit-user-drag: none; -webkit-tap-highlight-color: transparent; margin: 0px; padding: 0px; user-select: text; font-size: 12pt; line-height: 20.925px; font-family: Aptos, Aptos_EmbeddedFont, Aptos_MSFontService, sans-serif; font-variant-ligatures: none !important;&quot; data-contrast=&quot;auto&quot; lang=&quot;EN-US&quot; class=&quot;TextRun SCXW179125282 BCX0&quot;&gt;&lt;span style=&quot;-webkit-user-drag: none; -webkit-tap-highlight-color: transparent; margin: 0px; padding: 0px; user-select: text;&quot; class=&quot;NormalTextRun SCXW179125282 BCX0&quot;&gt;Declare String &lt;/span&gt;&lt;span style=&quot;-webkit-user-drag: none; -webkit-tap-highlight-color: transparent; margin: 0px; padding: 0px; user-select: text; background-position: 0px 100%; background-repeat: repeat-x; background-image: var(--urlSpellingErrorV2,url(&amp;quot;data:image/svg+xml;base64,PHN2ZyB4bWxucz0iaHR0cDovL3d3dy53My5vcmcvMjAwMC9zdmciIHdpZHRoPSI1IiBoZWlnaHQ9IjQiPjxnIGZpbGw9Im5vbmUiIGZpbGwtcnVsZT0iZXZlbm9kZCI+PHBhdGggc3Ryb2tlPSIjRUIwMDAwIiBkPSJNMCAzYzEuMjUgMCAxLjI1LTIgMi41LTJTMy43NSAzIDUgMyIvPjxwYXRoIGQ9Ik0wIDBoNXY0SDB6Ii8+PC9nPjwvc3ZnPg==&amp;quot;)); border-bottom: 1px solid transparent;&quot; class=&quot;NormalTextRun SpellingErrorV2Themed SCXW179125282 BCX0&quot;&gt;streetAddress&lt;/span&gt;&lt;/span&gt;&lt;span style=&quot;-webkit-user-drag: none; -webkit-tap-highlight-color: transparent; margin: 0px; padding: 0px; user-select: text; font-size: 12pt; line-height: 20.925px; font-family: Aptos, Aptos_EmbeddedFont, Aptos_MSFontService, sans-serif;&quot; class=&quot;EOP SCXW179125282 BCX0&quot; data-ccp-props=&quot;{}&quot;&gt;&amp;nbsp;&lt;/span&gt;&lt;/p&gt;&lt;/div&gt;&lt;div style=&quot;color: rgb(0, 0, 0); -webkit-user-drag: none; -webkit-tap-highlight-color: transparent; margin: 0px; padding: 0px; user-select: text; clear: both; cursor: text; overflow: visible; position: relative; direction: ltr; font-family: &amp;quot;Segoe UI&amp;quot;, &amp;quot;Segoe UI Web&amp;quot;, Arial, Verdana, sans-serif; text-align: start; background-color: rgb(255, 255, 255);&quot; class=&quot;OutlineElement Ltr SCXW179125282 BCX0&quot;&gt;&lt;p style=&quot;-webkit-user-drag: none; -webkit-tap-highlight-color: transparent; margin: 0px 0px 10.6667px; padding: 0px; user-select: text; overflow-wrap: break-word; white-space-collapse: preserve; vertical-align: baseline; font-kerning: none; background-color: transparent; color: windowtext;&quot; class=&quot;Paragraph SCXW179125282 BCX0&quot; lang=&quot;EN-US&quot;&gt;&lt;span style=&quot;-webkit-user-drag: none; -webkit-tap-highlight-color: transparent; margin: 0px; padding: 0px; user-select: text; font-size: 12pt; line-height: 20.925px; font-family: Aptos, Aptos_EmbeddedFont, Aptos_MSFontService, sans-serif; font-variant-ligatures: none !important;&quot; data-contrast=&quot;auto&quot; lang=&quot;EN-US&quot; class=&quot;TextRun SCXW179125282 BCX0&quot;&gt;Declare Constant Integer year&lt;/span&gt;&lt;span style=&quot;-webkit-user-drag: none; -webkit-tap-highlight-color: transparent; margin: 0px; padding: 0px; user-select: text; font-size: 12pt; line-height: 20.925px; font-family: Aptos, Aptos_EmbeddedFont, Aptos_MSFontService, sans-serif;&quot; class=&quot;EOP SCXW179125282 BCX0&quot; data-ccp-props=&quot;{}&quot;&gt;&amp;nbsp;&lt;/span&gt;&lt;/p&gt;&lt;/div&gt;&lt;div style=&quot;color: rgb(0, 0, 0); -webkit-user-drag: none; -webkit-tap-highlight-color: transparent; margin: 0px; padding: 0px; user-select: text; clear: both; cursor: text; overflow: visible; position: relative; direction: ltr; font-family: &amp;quot;Segoe UI&amp;quot;, &amp;quot;Segoe UI Web&amp;quot;, Arial, Verdana, sans-serif; text-align: start; background-color: rgb(255, 255, 255);&quot; class=&quot;OutlineElement Ltr SCXW179125282 BCX0&quot;&gt;&lt;p style=&quot;-webkit-user-drag: none; -webkit-tap-highlight-color: transparent; margin: 0px 0px 10.6667px; padding: 0px; user-select: text; overflow-wrap: break-word; white-space-collapse: preserve; vertical-align: baseline; font-kerning: none; background-color: transparent; color: windowtext;&quot; class=&quot;Paragraph SCXW179125282 BCX0&quot; lang=&quot;EN-US&quot;&gt;&lt;span style=&quot;-webkit-user-drag: none; -webkit-tap-highlight-color: transparent; margin: 0px; padding: 0px; user-select: text; font-size: 12pt; line-height: 20.925px; font-family: Aptos, Aptos_EmbeddedFont, Aptos_MSFontService, sans-serif; font-variant-ligatures: none !important;&quot; data-contrast=&quot;auto&quot; lang=&quot;EN-US&quot; class=&quot;TextRun SCXW179125282 BCX0&quot;&gt;&lt;span style=&quot;-webkit-user-drag: none; -webkit-tap-highlight-color: transparent; margin: 0px; padding: 0px; user-select: text;&quot; class=&quot;NormalTextRun SCXW179125282 BCX0&quot;&gt;Declare Integer &lt;/span&gt;&lt;span style=&quot;-webkit-user-drag: none; -webkit-tap-highlight-color: transparent; margin: 0px; padding: 0px; user-select: text;&quot; class=&quot;NormalTextRun SCXW179125282 BCX0&quot;&gt;itemsPurchased&lt;/span&gt;&lt;/span&gt;&lt;span style=&quot;-webkit-user-drag: none; -webkit-tap-highlight-color: transparent; margin: 0px; padding: 0px; user-select: text; font-size: 12pt; line-height: 20.925px; font-family: Aptos, Aptos_EmbeddedFont, Aptos_MSFontService, sans-serif;&quot; class=&quot;EOP SCXW179125282 BCX0&quot; data-ccp-props=&quot;{}&quot;&gt;&amp;nbsp;&lt;/span&gt;&lt;/p&gt;&lt;/div&gt;&lt;br&gt;&lt;/div&gt;" style="rounded=0;whiteSpace=wrap;html=1;" vertex="1" parent="1">
          <mxGeometry x="360" y="40" width="380" height="200" as="geometry" />
        </mxCell>
        <mxCell id="OV7kRfB5JpvK0r7Kry-r-9" style="edgeStyle=orthogonalEdgeStyle;rounded=0;orthogonalLoop=1;jettySize=auto;html=1;exitX=0.5;exitY=1;exitDx=0;exitDy=0;entryX=0.5;entryY=0;entryDx=0;entryDy=0;" edge="1" parent="1" source="OV7kRfB5JpvK0r7Kry-r-6" target="OV7kRfB5JpvK0r7Kry-r-7">
          <mxGeometry relative="1" as="geometry" />
        </mxCell>
        <mxCell id="OV7kRfB5JpvK0r7Kry-r-6" value="&lt;span style=&quot;font-family: Aptos, Aptos_EmbeddedFont, Aptos_MSFontService, sans-serif; font-size: 16px; font-variant-ligatures: none; text-align: left; white-space-collapse: preserve; background-color: rgb(255, 255, 255);&quot;&gt;Display “Thank you for shopping with us!”&lt;/span&gt;" style="shape=parallelogram;perimeter=parallelogramPerimeter;whiteSpace=wrap;html=1;fixedSize=1;" vertex="1" parent="1">
          <mxGeometry x="440" y="300" width="220" height="120" as="geometry" />
        </mxCell>
        <mxCell id="OV7kRfB5JpvK0r7Kry-r-15" style="edgeStyle=orthogonalEdgeStyle;rounded=0;orthogonalLoop=1;jettySize=auto;html=1;exitX=0.5;exitY=1;exitDx=0;exitDy=0;entryX=0.5;entryY=0;entryDx=0;entryDy=0;" edge="1" parent="1" source="OV7kRfB5JpvK0r7Kry-r-7" target="OV7kRfB5JpvK0r7Kry-r-10">
          <mxGeometry relative="1" as="geometry" />
        </mxCell>
        <mxCell id="OV7kRfB5JpvK0r7Kry-r-7" value="&lt;div style=&quot;color: rgb(0, 0, 0); -webkit-user-drag: none; -webkit-tap-highlight-color: transparent; margin: 0px; padding: 0px; user-select: text; clear: both; cursor: text; overflow: visible; position: relative; direction: ltr; font-family: &amp;quot;Segoe UI&amp;quot;, &amp;quot;Segoe UI Web&amp;quot;, Arial, Verdana, sans-serif; text-align: start; background-color: rgb(255, 255, 255);&quot; class=&quot;OutlineElement Ltr SCXW179125282 BCX0&quot;&gt;&lt;p style=&quot;-webkit-user-drag: none; -webkit-tap-highlight-color: transparent; margin: 0px 0px 10.6667px; padding: 0px; user-select: text; overflow-wrap: break-word; white-space-collapse: preserve; vertical-align: baseline; font-kerning: none; background-color: transparent; color: windowtext;&quot; class=&quot;Paragraph SCXW179125282 BCX0&quot; lang=&quot;EN-US&quot;&gt;&lt;span style=&quot;-webkit-user-drag: none; -webkit-tap-highlight-color: transparent; margin: 0px; padding: 0px; user-select: text; font-size: 12pt; line-height: 20.925px; font-family: Aptos, Aptos_EmbeddedFont, Aptos_MSFontService, sans-serif; font-variant-ligatures: none !important;&quot; data-contrast=&quot;auto&quot; lang=&quot;EN-US&quot; class=&quot;TextRun SCXW179125282 BCX0&quot;&gt;Declare Real price&lt;/span&gt;&lt;span style=&quot;-webkit-user-drag: none; -webkit-tap-highlight-color: transparent; margin: 0px; padding: 0px; user-select: text; display: inline-block; font-family: Calibri, sans-serif; font-size: 12pt; position: relative; white-space: nowrap; width: 0px;&quot; class=&quot;TabRun IPSelectionBlob BlobObject DragDrop SCXW179125282 BCX0&quot;&gt;&lt;span style=&quot;-webkit-user-drag: none; -webkit-tap-highlight-color: transparent; margin: 0px; padding: 0px; user-select: text; display: inline-block; white-space-collapse: preserve !important;&quot; class=&quot;TabChar SCXW179125282 BCX0&quot;&gt;&amp;nbsp;&amp;nbsp;&amp;nbsp;&amp;nbsp;&lt;/span&gt;&lt;span style=&quot;-webkit-user-drag: none; -webkit-tap-highlight-color: transparent; margin: 0px; padding: 0px; user-select: none; display: inline-block; left: 0px; position: absolute; top: 0px; white-space-collapse: preserve !important;&quot; class=&quot;TabLeaderChars SCXW179125282 BCX0&quot; aria-hidden=&quot;true&quot;&gt;&lt;/span&gt;&lt;/span&gt;&lt;span style=&quot;-webkit-user-drag: none; -webkit-tap-highlight-color: transparent; margin: 0px; padding: 0px; user-select: text; font-size: 12pt; line-height: 20.925px; font-family: Aptos, Aptos_EmbeddedFont, Aptos_MSFontService, sans-serif; font-variant-ligatures: none !important;&quot; data-contrast=&quot;auto&quot; lang=&quot;EN-US&quot; class=&quot;TextRun EmptyTextRun SCXW179125282 BCX0&quot;&gt;&lt;/span&gt;&lt;span style=&quot;-webkit-user-drag: none; -webkit-tap-highlight-color: transparent; margin: 0px; padding: 0px; user-select: text; font-size: 12pt; line-height: 20.925px; font-family: Aptos, Aptos_EmbeddedFont, Aptos_MSFontService, sans-serif;&quot; class=&quot;EOP SCXW179125282 BCX0&quot; data-ccp-props=&quot;{}&quot;&gt;&amp;nbsp;&lt;/span&gt;&lt;/p&gt;&lt;/div&gt;&lt;div style=&quot;color: rgb(0, 0, 0); -webkit-user-drag: none; -webkit-tap-highlight-color: transparent; margin: 0px; padding: 0px; user-select: text; clear: both; cursor: text; overflow: visible; position: relative; direction: ltr; font-family: &amp;quot;Segoe UI&amp;quot;, &amp;quot;Segoe UI Web&amp;quot;, Arial, Verdana, sans-serif; text-align: start; background-color: rgb(255, 255, 255);&quot; class=&quot;OutlineElement Ltr SCXW179125282 BCX0&quot;&gt;&lt;p style=&quot;-webkit-user-drag: none; -webkit-tap-highlight-color: transparent; margin: 0px 0px 10.6667px; padding: 0px; user-select: text; overflow-wrap: break-word; white-space-collapse: preserve; vertical-align: baseline; font-kerning: none; background-color: transparent; color: windowtext;&quot; class=&quot;Paragraph SCXW179125282 BCX0&quot; lang=&quot;EN-US&quot;&gt;&lt;span style=&quot;-webkit-user-drag: none; -webkit-tap-highlight-color: transparent; margin: 0px; padding: 0px; user-select: text; font-size: 12pt; line-height: 20.925px; font-family: Aptos, Aptos_EmbeddedFont, Aptos_MSFontService, sans-serif; font-variant-ligatures: none !important;&quot; data-contrast=&quot;auto&quot; lang=&quot;EN-US&quot; class=&quot;TextRun SCXW179125282 BCX0&quot;&gt;Set price = 0.0&lt;/span&gt;&lt;span style=&quot;-webkit-user-drag: none; -webkit-tap-highlight-color: transparent; margin: 0px; padding: 0px; user-select: text; font-size: 12pt; line-height: 20.925px; font-family: Aptos, Aptos_EmbeddedFont, Aptos_MSFontService, sans-serif;&quot; class=&quot;EOP SCXW179125282 BCX0&quot; data-ccp-props=&quot;{}&quot;&gt;&amp;nbsp;&lt;/span&gt;&lt;/p&gt;&lt;/div&gt;" style="rounded=0;whiteSpace=wrap;html=1;" vertex="1" parent="1">
          <mxGeometry x="360" y="470" width="380" height="80" as="geometry" />
        </mxCell>
        <mxCell id="OV7kRfB5JpvK0r7Kry-r-16" style="edgeStyle=orthogonalEdgeStyle;rounded=0;orthogonalLoop=1;jettySize=auto;html=1;exitX=0.5;exitY=1;exitDx=0;exitDy=0;entryX=0.5;entryY=0;entryDx=0;entryDy=0;" edge="1" parent="1" source="OV7kRfB5JpvK0r7Kry-r-10" target="OV7kRfB5JpvK0r7Kry-r-14">
          <mxGeometry relative="1" as="geometry" />
        </mxCell>
        <mxCell id="OV7kRfB5JpvK0r7Kry-r-10" value="&lt;div style=&quot;-webkit-user-drag: none; -webkit-tap-highlight-color: transparent; margin: 0px; padding: 0px; user-select: text; clear: both; cursor: text; overflow: visible; position: relative; direction: ltr; background-color: rgb(255, 255, 255); color: rgb(0, 0, 0);&quot; class=&quot;OutlineElement Ltr SCXW179125282 BCX0&quot;&gt;&lt;div style=&quot;-webkit-user-drag: none; -webkit-tap-highlight-color: transparent; margin: 0px; padding: 0px; user-select: text; clear: both; cursor: text; overflow: visible; position: relative; direction: ltr; background-color: rgb(255, 255, 255); color: rgb(0, 0, 0);&quot; class=&quot;OutlineElement Ltr SCXW179125282 BCX0&quot;&gt;&lt;p style=&quot;-webkit-user-drag: none; -webkit-tap-highlight-color: transparent; margin: 0px 0px 10.6667px; padding: 0px; user-select: text; overflow-wrap: break-word; vertical-align: baseline; font-kerning: none; background-color: transparent; color: windowtext;&quot; class=&quot;Paragraph SCXW179125282 BCX0&quot; lang=&quot;EN-US&quot;&gt;&lt;font face=&quot;Aptos, Aptos_EmbeddedFont, Aptos_MSFontService, sans-serif&quot;&gt;&lt;span style=&quot;font-size: 16px; font-variant-ligatures: none; white-space-collapse: preserve;&quot;&gt;Display “Please input your age: “ &lt;br/&gt;&lt;br/&gt;Input userAge&lt;/span&gt;&lt;/font&gt;&lt;/p&gt;&lt;/div&gt;&lt;/div&gt;" style="shape=parallelogram;perimeter=parallelogramPerimeter;whiteSpace=wrap;html=1;fixedSize=1;" vertex="1" parent="1">
          <mxGeometry x="405" y="590" width="290" height="120" as="geometry" />
        </mxCell>
        <mxCell id="OV7kRfB5JpvK0r7Kry-r-13" value="&lt;div style=&quot;-webkit-user-drag: none; -webkit-tap-highlight-color: transparent; margin: 0px; padding: 0px; user-select: text; clear: both; cursor: text; overflow: visible; position: relative; direction: ltr; background-color: rgb(255, 255, 255); color: rgb(0, 0, 0);&quot; class=&quot;OutlineElement Ltr SCXW179125282 BCX0&quot;&gt;&lt;div style=&quot;-webkit-user-drag: none; -webkit-tap-highlight-color: transparent; margin: 0px; padding: 0px; user-select: text; clear: both; cursor: text; overflow: visible; position: relative; direction: ltr; background-color: rgb(255, 255, 255); color: rgb(0, 0, 0);&quot; class=&quot;OutlineElement Ltr SCXW179125282 BCX0&quot;&gt;&lt;p style=&quot;-webkit-user-drag: none; -webkit-tap-highlight-color: transparent; margin: 0px 0px 10.6667px; padding: 0px; user-select: text; overflow-wrap: break-word; vertical-align: baseline; font-kerning: none; background-color: transparent; color: windowtext;&quot; class=&quot;Paragraph SCXW179125282 BCX0&quot; lang=&quot;EN-US&quot;&gt;&lt;font face=&quot;Aptos, Aptos_EmbeddedFont, Aptos_MSFontService, sans-serif&quot;&gt;&lt;span style=&quot;font-size: 16px; font-variant-ligatures: none; white-space-collapse: preserve;&quot;&gt;Display answer&lt;/span&gt;&lt;/font&gt;&lt;/p&gt;&lt;/div&gt;&lt;/div&gt;" style="shape=parallelogram;perimeter=parallelogramPerimeter;whiteSpace=wrap;html=1;fixedSize=1;" vertex="1" parent="1">
          <mxGeometry x="405" y="900" width="290" height="120" as="geometry" />
        </mxCell>
        <mxCell id="OV7kRfB5JpvK0r7Kry-r-17" style="edgeStyle=orthogonalEdgeStyle;rounded=0;orthogonalLoop=1;jettySize=auto;html=1;exitX=0.5;exitY=1;exitDx=0;exitDy=0;entryX=0.5;entryY=0;entryDx=0;entryDy=0;" edge="1" parent="1" source="OV7kRfB5JpvK0r7Kry-r-14" target="OV7kRfB5JpvK0r7Kry-r-13">
          <mxGeometry relative="1" as="geometry" />
        </mxCell>
        <mxCell id="OV7kRfB5JpvK0r7Kry-r-14" value="&lt;div style=&quot;color: rgb(0, 0, 0); -webkit-user-drag: none; -webkit-tap-highlight-color: transparent; margin: 0px; padding: 0px; user-select: text; clear: both; cursor: text; overflow: visible; position: relative; direction: ltr; font-family: &amp;quot;Segoe UI&amp;quot;, &amp;quot;Segoe UI Web&amp;quot;, Arial, Verdana, sans-serif; text-align: start; background-color: rgb(255, 255, 255);&quot; class=&quot;OutlineElement Ltr SCXW179125282 BCX0&quot;&gt;&lt;p style=&quot;-webkit-user-drag: none; -webkit-tap-highlight-color: transparent; margin: 0px 0px 10.6667px; padding: 0px; user-select: text; overflow-wrap: break-word; white-space-collapse: preserve; vertical-align: baseline; font-kerning: none; background-color: transparent; color: windowtext;&quot; class=&quot;Paragraph SCXW179125282 BCX0&quot; lang=&quot;EN-US&quot;&gt;&lt;span style=&quot;font-family: Aptos, Aptos_EmbeddedFont, Aptos_MSFontService, sans-serif; font-size: 16px; font-variant-ligatures: none;&quot;&gt;Set answer = price * quantity&lt;/span&gt;&lt;/p&gt;&lt;/div&gt;" style="rounded=0;whiteSpace=wrap;html=1;" vertex="1" parent="1">
          <mxGeometry x="360" y="760" width="380" height="80" as="geometry" />
        </mxCell>
      </root>
    </mxGraphModel>
  </diagram>
</mxfile>
